<svg xmlns="http://www.w3.org/2000/svg" width="32" height="32" viewBox="0 0 32 32" shape-rendering="crispEdges">
  <!-- base sand -->
  <rect x="0" y="0" width="32" height="32" fill="#dbb872"/>
  <!-- variation bands -->
  <rect x="0" y="6" width="32" height="3" fill="#e6c98a"/>
  <rect x="0" y="18" width="32" height="2" fill="#c9a258"/>
  <!-- grain dots (lighter) -->
  <rect x="2" y="2" width="1" height="1" fill="#f2dca0"/>
  <rect x="9" y="4" width="1" height="1" fill="#f2dca0"/>
  <rect x="17" y="3" width="1" height="1" fill="#f2dca0"/>
  <rect x="25" y="5" width="1" height="1" fill="#f2dca0"/>
  <rect x="6" y="11" width="1" height="1" fill="#f2dca0"/>
  <rect x="13" y="13" width="1" height="1" fill="#f2dca0"/>
  <rect x="22" y="12" width="1" height="1" fill="#f2dca0"/>
  <rect x="29" y="14" width="1" height="1" fill="#f2dca0"/>
  <rect x="3" y="22" width="1" height="1" fill="#f2dca0"/>
  <rect x="11" y="24" width="1" height="1" fill="#f2dca0"/>
  <rect x="19" y="23" width="1" height="1" fill="#f2dca0"/>
  <rect x="27" y="25" width="1" height="1" fill="#f2dca0"/>
  <rect x="7" y="29" width="1" height="1" fill="#f2dca0"/>
  <rect x="20" y="30" width="1" height="1" fill="#f2dca0"/>
  <!-- grain dots (darker) -->
  <rect x="5" y="7" width="1" height="1" fill="#a88840"/>
  <rect x="14" y="9" width="1" height="1" fill="#a88840"/>
  <rect x="24" y="8" width="1" height="1" fill="#a88840"/>
  <rect x="2" y="16" width="1" height="1" fill="#a88840"/>
  <rect x="11" y="17" width="1" height="1" fill="#a88840"/>
  <rect x="19" y="15" width="1" height="1" fill="#a88840"/>
  <rect x="28" y="17" width="1" height="1" fill="#a88840"/>
  <rect x="6" y="26" width="1" height="1" fill="#a88840"/>
  <rect x="15" y="27" width="1" height="1" fill="#a88840"/>
  <rect x="23" y="28" width="1" height="1" fill="#a88840"/>
  <!-- a few small shells -->
  <rect x="10" y="20" width="2" height="1" fill="#fff5dc"/>
  <rect x="11" y="21" width="1" height="1" fill="#fff5dc"/>
  <rect x="25" y="2" width="2" height="1" fill="#fff5dc"/>
  <rect x="26" y="3" width="1" height="1" fill="#fff5dc"/>
</svg>
